<!DOCTYPE svg PUBLIC "-//W3C//DTD SVG 1.1//EN" "http://www.w3.org/Graphics/SVG/1.1/DTD/svg11.dtd">
<!-- Uploaded to: SVG Repo, www.svgrepo.com, Transformed by: SVG Repo Mixer Tools -->
<svg fill="#CAA659" height="64px" width="64px" version="1.1" id="Capa_1" xmlns="http://www.w3.org/2000/svg" xmlns:xlink="http://www.w3.org/1999/xlink" viewBox="0 0 412.272 412.272" xml:space="preserve">
<g id="SVGRepo_bgCarrier" stroke-width="0"/>
<g id="SVGRepo_tracerCarrier" stroke-linecap="round" stroke-linejoin="round"/>
<g id="SVGRepo_iconCarrier"> <g> <path d="M336.549,250.313c1.59-1.777,1.439-4.506-0.339-6.097l-15.924-14.248c-1.216-1.088-2.942-1.398-4.464-0.798l-1.339,0.528 c0.618-3.116,0.955-6.366,0.955-9.712c0-6.4-1.201-12.46-3.343-17.873l4.418-1.743l13.938,12.472c0.824,0.737,1.852,1.1,2.877,1.1 c1.185,0,2.366-0.485,3.22-1.438c1.59-1.777,1.439-4.506-0.339-6.096l-15.924-14.249c-1.216-1.089-2.942-1.397-4.464-0.799 l-7.703,3.039c-3.469-5.338-7.994-9.619-13.201-12.38l2.95-6.833l12.158,4.339c2.246,0.799,4.717-0.37,5.518-2.615 c0.802-2.246-0.369-4.716-2.615-5.518l-15.969-5.699c-2.146-0.766-4.513,0.266-5.415,2.355l-4.771,11.051 c-1.822-0.362-3.69-0.559-5.596-0.559c-1.906,0-3.773,0.197-5.596,0.559l-4.772-11.051c-0.902-2.089-3.268-3.121-5.415-2.355 l-15.966,5.699c-2.246,0.802-3.417,3.272-2.615,5.518c0.802,2.246,3.273,3.415,5.518,2.615l12.155-4.338l2.95,6.832 c-5.206,2.761-9.733,7.042-13.201,12.379l-7.7-3.039c-1.519-0.599-3.246-0.29-4.464,0.798l-15.926,14.249 c-1.777,1.59-1.929,4.32-0.339,6.097c0.852,0.953,2.033,1.438,3.22,1.438c1.024,0,2.053-0.363,2.877-1.1l13.94-12.473l4.415,1.742 c-2.143,5.412-3.344,11.472-3.344,17.873c0,3.346,0.336,6.595,0.955,9.711l-1.335-0.527c-1.519-0.6-3.246-0.29-4.464,0.798 l-15.926,14.248c-1.777,1.59-1.929,4.319-0.339,6.097c0.852,0.953,2.033,1.438,3.22,1.438c1.024,0,2.053-0.363,2.877-1.1 l13.94-12.471l5.495,2.169c5.882,12.583,17.037,21.083,29.838,21.083c12.803,0,23.956-8.499,29.837-21.083l5.499-2.169 l13.938,12.471c0.824,0.737,1.852,1.1,2.877,1.1C334.515,251.751,335.696,251.266,336.549,250.313z M267.595,206.652 c0-3.089,2.507-5.594,5.598-5.594c3.09,0,5.595,2.505,5.595,5.594c0,3.09-2.505,5.595-5.595,5.595 C270.102,212.248,267.595,209.743,267.595,206.652z M278.787,240.312c-3.091,0-5.595-2.507-5.595-5.597 c0-3.089,2.504-5.592,5.595-5.592c3.089,0,5.595,2.503,5.595,5.592C284.382,237.804,281.876,240.312,278.787,240.312z M289.803,219.37c0-3.457,2.806-6.261,6.262-6.261c3.458,0,6.262,2.804,6.262,6.261c0,3.458-2.804,6.26-6.262,6.26 C292.608,225.63,289.803,222.828,289.803,219.37z"/> <path d="M408.653,330.231l-59.709-59.386c12.313-15.074,19.709-34.313,19.709-55.249c0-26.229-11.606-49.796-29.951-65.843v-64.06 c0-15.961-12.936-28.898-28.898-28.898H28.901C12.938,56.795,0,69.732,0,85.693V259.09c0,15.96,12.938,28.902,28.901,28.902 h114.331v32.964h-28.326c-9.518,0-17.261,7.742-17.261,17.258c0,9.521,7.742,17.262,17.261,17.262h108.89 c9.52,0,17.263-7.741,17.263-17.262c0-9.516-7.743-17.258-17.263-17.258h-28.325v-32.964h36.66 c13.998,9.513,30.884,15.079,49.047,15.079c18.46,0,35.599-5.753,49.728-15.552l60.44,60.113c2.394,2.381,5.523,3.571,8.653,3.571 c3.151,0,6.303-1.207,8.701-3.618C413.48,342.78,413.459,335.01,408.653,330.231z M23.041,260.8V83.984h292.621v51.226 c-10.587-4.559-22.245-7.09-34.484-7.09c-48.234,0-87.476,39.242-87.476,87.476c0,16.53,4.61,32.003,12.61,45.204H23.041z M209.124,215.596c0-39.731,32.323-72.054,72.054-72.054s72.054,32.323,72.054,72.054c0,39.73-32.323,72.053-72.054,72.053 S209.124,255.327,209.124,215.596z"/> </g> </g>
</svg>